<?xml version="1.0" standalone="no"?>
<!DOCTYPE svg PUBLIC "-//W3C//DTD SVG 20010904//EN"
 "http://www.w3.org/TR/2001/REC-SVG-20010904/DTD/svg10.dtd">
<svg version="1.0" xmlns="http://www.w3.org/2000/svg"
 width="1080.000000pt" height="1080.000000pt" viewBox="0 0 1080.000000 1080.000000"
 preserveAspectRatio="xMidYMid meet">

<g transform="translate(0.000000,1080.000000) scale(0.100000,-0.100000)"
fill="#000000" stroke="none">
<path d="M1355 10789 c-797 -68 -1405 -774 -1346 -1562 12 -157 31 -257 72
-382 135 -406 456 -747 854 -906 213 -85 396 -109 830 -109 l271 0 60 147 c32
81 61 151 62 155 2 5 -180 8 -405 8 -440 0 -491 5 -653 61 -396 135 -703 495
-775 908 -21 116 -20 326 0 426 50 245 171 465 347 632 167 157 359 257 587
304 88 18 143 19 975 19 l882 0 58 143 c32 78 61 148 63 155 4 9 -178 12 -893
11 -495 -1 -939 -5 -989 -10z"/>
</g>
</svg>
