<?xml version="1.0" standalone="no"?>
<!DOCTYPE svg PUBLIC "-//W3C//DTD SVG 20010904//EN"
 "http://www.w3.org/TR/2001/REC-SVG-20010904/DTD/svg10.dtd">
<svg version="1.0" xmlns="http://www.w3.org/2000/svg"
 width="1280.000000pt" height="853.000000pt" viewBox="0 0 1280 853"
 preserveAspectRatio="xMidYMid meet">

  <defs>
    <!-- Hintergrund-Radialverlauf (dunkel -> leicht beleuchtet) -->


    <!-- Regenbogen-Gradient für die Pfade -->
    <linearGradient id="rainbowGradient" x1="0%" y1="0%" x2="100%" y2="100%">
      <stop offset="0%"   stop-color="#ff3b30"/>
      <stop offset="15%"  stop-color="#ff8c00"/>
      <stop offset="30%"  stop-color="#ffd300"/>
      <stop offset="45%"  stop-color="#2ecc40"/>
      <stop offset="60%"  stop-color="#00aaff"/>
      <stop offset="75%"  stop-color="#5b2bd6"/>
      <stop offset="90%"  stop-color="#ff2d6f"/>
      <stop offset="100%" stop-color="#ff3b30"/>
    </linearGradient>

    <!-- weicher Glow für die Formen -->
    <filter id="softGlow" x="-50%" y="-50%" width="200%" height="200%">
      <feGaussianBlur in="SourceGraphic" stdDeviation="8" result="blur"/>
      <feMerge>
        <feMergeNode in="blur"/>
        <feMergeNode in="SourceGraphic"/>
      </feMerge>
    </filter>

    <!-- kleine Strahlen-Feuerwerksfilter -->
    <filter id="sparkle" x="-50%" y="-50%" width="200%" height="200%">
      <feGaussianBlur stdDeviation="2" result="b"/>
      <feMerge>
        <feMergeNode in="b"/>
        <feMergeNode in="SourceGraphic"/>
      </feMerge>
    </filter>

    <!-- Stern-Path als Symbol -->
    <symbol id="star" viewBox="-5 -5 10 10">
      <path d="M0,-5 L1.5,-1 L5,-1 L2,1 L3.5,5 L0,2.5 L-3.5,5 L-2,1 L-5,-1 L-1.5,-1 Z"/>
    </symbol>
  </defs>

  <!-- Hintergrund -->
  <rect x="0" y="0" width="1280" height="853" fill="url(#bgRad)"/>

  <!-- Konfetti & Feuerwerk (oben drüber) -->
  <g id="confetti">
    <!-- bunte Kreise -->
    <circle cx="120" cy="90" r="5"  fill="#ff3b30" opacity="0.95"/>
    <circle cx="210" cy="60" r="4"  fill="#ffd300" opacity="0.95"/>
    <circle cx="320" cy="130" r="6" fill="#00aaff" opacity="0.95"/>
    <circle cx="450" cy="40" r="5"  fill="#2ecc40" opacity="0.9"/>
    <circle cx="560" cy="110" r="4" fill="#5b2bd6" opacity="0.95"/>
    <circle cx="700" cy="80" r="6"  fill="#ff8c00" opacity="0.95"/>
    <circle cx="850" cy="65" r="5"  fill="#ff2d6f" opacity="0.95"/>
    <circle cx="980" cy="120" r="4" fill="#00ffcc" opacity="0.9"/>
    <circle cx="1100" cy="50" r="6" fill="#ffd300" opacity="0.95"/>

    <!-- kleine Rechtecke (Konfetti) -->
    <rect x="150" y="220" width="6" height="12" transform="rotate(20 153 226)" fill="#ff3b30" opacity="0.95"/>
    <rect x="260" y="200" width="5" height="10" transform="rotate(-30 262.5 205)" fill="#00aaff" opacity="0.95"/>
    <rect x="520" y="240" width="6" height="12" transform="rotate(45 523 246)" fill="#2ecc40" opacity="0.95"/>
    <rect x="740" y="210" width="5" height="10" transform="rotate(-10 742.5 215)" fill="#5b2bd6" opacity="0.95"/>
    <rect x="1030" y="240" width="6" height="12" transform="rotate(25 1033 246)" fill="#ff8c00" opacity="0.95"/>

    <!-- Sterne / Funken -->
    <use href="#star" x="200" y="320" width="12" height="12" fill="#ffd300" filter="url(#sparkle)" opacity="0.95"/>
    <use href="#star" x="540" y="110" width="10" height="10" fill="#ff3b30" filter="url(#sparkle)" opacity="0.95"/>
    <use href="#star" x="880" y="300" width="14" height="14" fill="#00aaff" filter="url(#sparkle)" opacity="0.95"/>
    <use href="#star" x="1160" y="180" width="9" height="9"  fill="#5b2bd6" filter="url(#sparkle)" opacity="0.95"/>
  </g>

  <!-- Das original Artwork (skaliert/gespiegelt) -->
  <!-- Wir benutzen den vorhandenen transform und ersetzen das schwarze Fill durch den Regenbogen-Gradient + Glow -->
  <g transform="translate(0,853) scale(0.100000,-0.100000)"
     fill="url(#rainbowGradient)" stroke="none"
     filter="url(#softGlow)">
    <path d="M4712 8063 c-58 -50 -188 -376 -251 -632 -52 -207 -125 -633 -119
-692 2 -26 20 22 72 195 102 339 154 480 358 968 47 114 48 119 33 148 -18 35
-60 41 -93 13z"/>
    <path d="M3582 7928 c-26 -26 -12 -77 62 -225 83 -165 236 -483 236 -489 0 -2
57 -119 127 -261 168 -341 174 -321 32 107 -42 129 -94 278 -114 330 -83 219
-221 495 -266 533 -25 20 -60 22 -77 5z"/>
    <path d="M6260 7918 c101 -61 254 -168 320 -224 93 -77 280 -268 383 -391 l77
-93 1561 0 c1059 0 1567 3 1580 10 19 11 54 78 127 250 22 52 70 163 106 247
36 84 66 161 66 173 0 52 98 50 -2162 50 l-2093 0 35 -22z"/>
    <path d="M4127 7892 c-22 -24 -21 -55 1 -75 24 -22 55 -21 75 1 21 23 21 41 1
70 -18 27 -55 29 -77 4z"/>
    <path d="M5064 7675 c-33 -50 20 -104 71 -71 30 20 33 56 7 79 -27 24 -59 21
-78 -8z"/>
    <path d="M4145 7630 c-15 -17 -18 -35 -16 -108 5 -219 94 -858 123 -887 7 -7
8 101 4 330 -7 376 -21 617 -38 649 -21 41 -46 46 -73 16z"/>
    <path d="M3199 7464 c-22 -23 -22 -27 -9 -51 20 -35 52 -46 79 -27 29 20 28
68 -1 88 -31 22 -41 20 -69 -10z"/>
    <path d="M5520 7437 c-190 -83 -414 -229 -630 -410 -123 -102 -406 -384 -397
-394 3 -2 56 33 119 79 313 233 475 335 935 592 131 73 155 104 113 146 -27
27 -53 25 -140 -13z"/>
    <path d="M4903 7443 c-15 -5 -138 -174 -215 -293 -90 -139 -198 -353 -185
-366 2 -2 27 31 57 74 62 90 123 167 275 352 143 173 153 191 119 224 -16 16
-29 19 -51 9z"/>
    <path d="M3388 7289 c-26 -15 -22 -50 13 -97 16 -22 139 -135 272 -249 133
-114 265 -229 293 -255 61 -57 83 -64 33 -10 -20 20 -47 51 -60 68 -123 160
-454 516 -501 540 -32 16 -28 16 -50 3z"/>
    <path d="M2740 7144 c-21 -25 0 -66 47 -92 23 -13 136 -60 250 -106 185 -74
356 -147 523 -223 164 -75 389 -173 395 -173 11 0 -269 181 -402 261 -135 80
-502 263 -629 313 -99 39 -163 46 -184 20z"/>
    <path d="M5592 6958 c-27 -27 -3 -88 34 -88 31 0 54 21 54 48 0 35 -16 52 -50
52 -14 0 -31 -5 -38 -12z"/>
    <path d="M5225 6866 c-187 -63 -365 -147 -558 -263 -32 -19 -56 -38 -53 -40 3
-3 103 28 223 70 120 41 284 96 365 122 179 58 210 75 206 113 -3 24 -7 27
-43 29 -24 1 -81 -12 -140 -31z"/>
    <path d="M2787 6672 c-24 -27 -21 -59 8 -78 23 -15 27 -15 50 0 29 19 33 56 9
80 -21 21 -47 20 -67 -2z"/>
    <path d="M3043 6633 c-21 -8 -15 -41 10 -58 22 -14 135 -33 447 -75 85 -11
206 -27 269 -35 62 -9 116 -13 119 -10 3 3 -2 5 -11 5 -8 0 -71 16 -139 36
-189 54 -390 101 -530 124 -132 21 -145 22 -165 13z"/>
    <path d="M5455 6603 c-212 -19 -604 -90 -790 -143 l-70 -20 95 5 c52 3 203 13
335 21 132 9 404 19 604 22 360 7 363 8 381 30 11 13 16 30 13 43 -11 42 -55
49 -300 47 -125 -1 -246 -3 -268 -5z"/>
    <path d="M7776 6479 c20 -30 51 -72 68 -94 17 -22 31 -41 31 -42 0 -1 19 4 43
10 36 10 45 9 59 -6 21 -20 7 -58 -31 -82 l-25 -17 26 -51 c60 -120 79 -195
87 -344 l1 -23 347 0 346 0 -3 -22 c-2 -13 -27 -76 -55 -141 -29 -65 -53 -133
-54 -150 l-1 -32 420 -3 c493 -2 463 -9 509 104 32 77 54 128 122 289 25 61
66 158 90 218 24 59 48 115 54 125 5 9 21 46 35 82 15 36 38 89 51 118 24 53
30 87 17 95 -5 3 -496 8 -1091 12 l-1084 7 38 -53z"/>
    <path d="M4203 6484 c-67 -34 -92 -120 -54 -178 27 -40 57 -55 113 -56 88 0
146 80 118 164 -22 68 -112 103 -177 70z"/>
    <path d="M3345 6339 c-298 -16 -588 -50 -685 -81 -19 -6 -48 -20 -63 -30 -36
-26 -34 -66 5 -88 26 -14 41 -12 215 22 330 66 737 128 1113 169 8 1 -12 5
-45 9 -78 10 -349 9 -540 -1z"/>
    <path d="M4710 6330 c14 -6 67 -20 117 -30 143 -30 405 -97 544 -141 166 -51
199 -50 199 9 0 18 -11 28 -53 47 -124 57 -434 110 -707 121 -96 3 -119 2
-100 -6z"/>
    <path d="M4550 6258 c3 -3 61 -36 130 -73 235 -129 608 -363 954 -598 65 -45
126 -29 112 28 -16 62 -375 300 -651 430 -230 108 -575 243 -545 213z"/>
    <path d="M3765 6209 c-267 -75 -540 -187 -612 -252 -25 -23 -29 -47 -11 -65
19 -19 48 -14 108 16 294 149 597 306 605 313 14 13 -12 10 -90 -12z"/>
    <path d="M3840 6079 c-107 -72 -242 -168 -300 -213 -124 -96 -417 -384 -484
-475 -63 -87 -60 -131 10 -131 35 0 94 51 220 192 143 160 511 524 729 721 22
20 36 36 30 36 -5 0 -98 -58 -205 -130z"/>
    <path d="M5732 6138 c-28 -28 -3 -88 37 -88 22 0 51 30 51 53 0 38 -61 62 -88
35z"/>
    <path d="M4550 6110 c0 -5 33 -45 73 -88 40 -42 132 -142 204 -222 202 -223
286 -302 314 -298 62 8 10 96 -142 242 -153 147 -449 389 -449 366z"/>
    <path d="M4152 6058 c-169 -412 -346 -1105 -310 -1210 12 -34 42 -44 72 -24
27 17 39 62 86 321 49 271 78 425 125 660 48 239 59 305 53 305 -3 0 -14 -24
-26 -52z"/>
    <path d="M3994 5997 c-202 -246 -384 -529 -384 -597 0 -15 6 -32 13 -38 19
-16 47 6 90 71 75 113 344 613 335 622 -2 2 -26 -24 -54 -58z"/>
    <path d="M4423 6050 c2 -8 36 -112 75 -230 38 -118 118 -366 177 -550 59 -184
118 -356 132 -381 44 -82 113 -88 113 -10 0 66 -124 410 -240 666 -107 237
-277 569 -257 505z"/>
    <path d="M4290 5883 c0 -49 -5 -182 -11 -298 -12 -234 -6 -324 20 -357 18 -22
19 -22 46 -4 l28 18 -6 177 c-8 228 -48 551 -69 551 -4 0 -8 -39 -8 -87z"/>
    <path d="M2892 5828 c-22 -22 -14 -67 13 -80 37 -17 75 3 75 40 0 35 -16 52
-50 52 -14 0 -31 -5 -38 -12z"/>
    <path d="M5292 5398 c-21 -21 -14 -57 14 -70 31 -14 57 -1 62 31 7 42 -46 69
-76 39z"/>
    <path d="M3476 5194 c-33 -32 -8 -84 39 -84 15 0 31 10 41 25 15 23 15 27 0
50 -19 29 -56 33 -80 9z"/>
    <path d="M3057 4962 c-114 -371 -155 -640 -156 -1017 -1 -562 113 -1047 360
-1537 339 -670 832 -1169 1474 -1493 309 -156 600 -258 905 -318 306 -61 422
-67 1235 -67 688 0 691 0 714 21 12 11 26 31 31 42 5 12 39 94 75 182 37 88
75 180 85 205 10 25 32 79 49 120 34 82 37 100 19 100 -7 0 -440 1 -963 3
-979 4 -986 4 -1211 47 -184 35 -428 113 -584 187 -30 14 -84 39 -119 55 -61
28 -173 92 -256 147 -589 386 -995 953 -1164 1626 -66 265 -75 335 -84 690 -7
235 24 471 89 688 13 44 24 84 24 88 0 4 -46 33 -102 64 -83 46 -278 172 -377
242 -16 12 -20 5 -44 -75z"/>
    <path d="M4312 5034 c-27 -18 -29 -55 -4 -77 23 -21 46 -22 66 -1 22 21 20 50
-4 74 -24 24 -29 24 -58 4z"/>
    <path d="M6330 4664 c-32 -13 -54 -43 -130 -169 -43 -71 -146 -240 -229 -375
-84 -135 -154 -255 -158 -268 -7 -28 9 -42 50 -42 19 0 27 5 27 18 0 9 9 32
20 50 17 27 25 32 60 32 31 0 43 -5 56 -25 9 -14 13 -32 9 -45 l-6 -20 985 0
c687 0 986 -3 986 -11 0 -5 4 -8 9 -5 9 6 -16 -60 -114 -299 -32 -77 -65 -160
-75 -185 -10 -25 -30 -74 -45 -110 -15 -36 -35 -85 -45 -110 -97 -247 -232
-580 -243 -597 -10 -17 -1456 -19 -1587 -3 -354 43 -693 245 -914 545 -141
190 -224 379 -282 640 -24 107 -27 140 -27 315 -1 173 2 209 26 325 15 72 41
172 58 223 17 51 29 95 28 97 -2 2 -142 5 -312 7 -238 2 -307 0 -307 -9 0 -7
-9 -41 -19 -75 -11 -35 -30 -117 -43 -183 -20 -107 -23 -150 -23 -400 0 -251
2 -293 23 -400 33 -171 86 -357 132 -460 111 -248 145 -305 322 -540 46 -62
257 -262 336 -320 234 -170 497 -294 742 -349 234 -52 206 -51 1363 -51 l1079
0 23 27 c12 14 46 86 74 160 28 73 58 147 65 163 15 34 102 253 171 430 114
294 177 452 190 483 8 18 15 37 15 42 0 5 11 33 24 62 12 29 32 78 44 108 65
172 136 352 220 560 52 129 101 253 109 275 7 22 22 60 33 85 25 60 97 240
126 318 14 35 22 68 19 73 -4 5 -392 9 -970 9 l-964 0 6 -83 c5 -70 3 -86 -11
-100 -10 -9 -21 -17 -26 -17 -17 0 -48 66 -55 115 -12 91 -3 85 -131 85 -112
0 -114 0 -102 -20 17 -26 0 -55 -32 -55 -31 0 -49 29 -33 54 12 19 8 20 -108
23 l-120 3 -40 -73 c-42 -76 -61 -92 -88 -75 -23 14 -25 48 -6 95 9 22 14 42
12 44 -7 7 -182 14 -197 8z m248 -390 c4 -28 -15 -42 -173 -124 -166 -86 -224
-118 -248 -138 -9 -8 -20 -13 -23 -9 -9 9 116 130 188 180 146 104 249 141
256 91z m337 -170 c22 -22 15 -45 -17 -63 -24 -14 -28 -14 -47 3 -25 23 -26
39 -5 60 20 21 48 20 69 0z m-314 -163 c22 -18 23 -21 8 -36 -23 -24 -128 -36
-279 -33 -121 3 -132 4 -105 16 43 19 271 69 326 71 15 0 37 -8 50 -18z"/>
  </g>

  <!-- Feine Glanzspuren unten -->
  <g opacity="0.25">
    <ellipse cx="640" cy="800" rx="420" ry="30" fill="#ffffff"/>
  </g>

</svg>
