<?xml version="1.0" standalone="no"?>
<!DOCTYPE svg PUBLIC "-//W3C//DTD SVG 20010904//EN"
 "http://www.w3.org/TR/2001/REC-SVG-20010904/DTD/svg10.dtd">
<svg version="1.0" xmlns="http://www.w3.org/2000/svg"
 width="1280.000000pt" height="853.000000pt" viewBox="0 0 1280.000000 853.000000"
 preserveAspectRatio="xMidYMid meet">

<g transform="translate(0.000000,853.000000) scale(0.100000,-0.100000)"
fill="#ed4d00" stroke="none">
<path d="M5640 8004 c-231 -25 -546 -97 -775 -177 -79 -28 -248 -93 -273 -106
-9 -5 -66 -33 -127 -61 -132 -64 -265 -139 -265 -150 0 -5 35 -55 78 -112 42
-57 105 -149 140 -204 l63 -101 87 -6 c48 -3 142 -19 210 -37 79 -20 128 -28
135 -22 14 11 217 92 302 121 180 60 340 96 535 119 133 16 329 17 2351 17
1793 0 2209 2 2222 13 14 12 31 53 162 392 31 80 67 172 80 205 39 103 39 104
10 115 -16 6 -866 9 -2418 9 -1933 -1 -2416 -4 -2517 -15z"/>
<path d="M3785 7578 c-95 -98 -135 -170 -120 -217 3 -10 38 -40 78 -65 191
-120 306 -281 315 -436 4 -80 -20 -174 -55 -212 -9 -10 -14 -21 -11 -24 9 -9
115 26 129 42 16 19 -1 185 -21 209 -7 9 -15 30 -17 47 -2 16 -14 44 -28 60
-14 16 -25 36 -25 43 0 17 -81 135 -92 135 -4 0 -8 7 -8 15 0 8 -9 19 -20 25
-11 6 -20 16 -20 22 0 6 -7 16 -16 22 -17 13 -9 46 12 46 19 0 83 -71 84 -92
0 -10 4 -17 8 -15 4 1 23 -15 41 -35 18 -21 28 -38 22 -38 -6 0 -11 -5 -11
-11 0 -5 4 -8 9 -5 5 4 12 -7 16 -23 3 -16 13 -32 22 -35 8 -4 13 -13 9 -21
-3 -8 -1 -15 4 -15 6 0 10 -11 10 -24 0 -14 4 -27 9 -30 17 -11 49 -90 55
-136 4 -25 8 -55 9 -67 2 -13 7 -26 10 -30 4 -3 7 -15 7 -25 0 -16 6 -19 38
-16 34 3 37 5 36 33 -2 48 -26 149 -39 165 -7 8 -20 41 -29 74 -12 40 -23 60
-36 63 -10 3 -16 11 -14 18 3 7 -2 19 -10 28 -8 8 -18 26 -22 41 -3 14 -11 30
-18 34 -6 4 -16 18 -22 32 -15 33 -104 130 -120 130 -6 0 -17 13 -22 29 -12
35 -67 50 -75 19 -7 -26 -27 -22 -28 5 l0 22 -11 -22 c-13 -28 -48 -30 -76 -5
-43 36 -5 89 130 181 74 49 78 112 8 119 -29 3 -40 -4 -95 -60z m75 -283 c0
-1 -7 -8 -15 -15 -13 -10 -15 -9 -15 8 0 15 5 20 15 16 8 -4 15 -7 15 -9z
m140 -85 c0 -5 -4 -10 -10 -10 -5 0 -10 5 -10 10 0 6 5 10 10 10 6 0 10 -4 10
-10z"/>
<path d="M3954 7495 c-6 -36 7 -65 30 -65 15 -1 56 -36 56 -48 0 -5 11 -17 25
-26 14 -9 25 -21 25 -27 0 -16 27 -39 45 -39 11 0 15 -5 12 -14 -6 -15 18 -56
40 -69 7 -4 13 -14 13 -21 0 -7 14 -32 30 -54 17 -23 30 -49 30 -58 0 -9 10
-29 21 -46 12 -16 30 -57 40 -90 11 -33 22 -65 26 -72 8 -11 9 -16 12 -36 0
-5 6 -10 11 -10 14 0 1 50 -18 73 -8 9 -12 17 -9 17 6 0 -24 93 -41 126 -5 10
-21 44 -36 74 -63 131 -141 253 -226 354 -30 36 -60 65 -67 65 -7 1 -15 -15
-19 -34z"/>
<path d="M3572 7013 c-140 -150 -211 -227 -209 -229 1 -1 30 4 64 11 34 7 108
35 165 63 57 27 121 55 143 62 22 6 59 19 82 27 l41 15 -34 49 c-20 26 -57 66
-84 89 l-48 40 -120 -127z"/>
<path d="M4578 6883 c-33 -5 -36 -18 -8 -33 15 -8 27 -7 50 5 17 9 35 13 41 9
6 -3 22 -3 37 1 25 7 25 8 7 15 -21 9 -80 10 -127 3z"/>
<path d="M4952 6820 l-33 -5 38 -19 c21 -10 50 -25 65 -32 14 -8 40 -14 57
-14 18 0 48 -8 69 -19 20 -10 52 -22 70 -26 17 -3 32 -11 32 -17 0 -6 10 -8
25 -4 14 4 25 2 25 -4 0 -5 7 -10 15 -10 8 0 15 -7 15 -16 0 -11 6 -14 20 -9
14 4 20 2 20 -8 0 -9 -4 -17 -9 -19 -5 -1 8 -15 29 -30 31 -22 37 -23 33 -8
-10 38 15 26 42 -21 30 -51 52 -66 39 -27 -6 21 -6 22 12 8 28 -22 32 -30 27
-54 -5 -21 -5 -21 9 -1 24 33 29 55 13 55 -8 0 -15 5 -15 10 0 15 26 12 39 -4
9 -11 8 -23 -4 -51 -18 -44 -18 -45 -5 -45 6 0 10 7 10 15 0 21 36 55 58 54
10 0 12 -3 5 -6 -7 -2 -13 -11 -13 -19 0 -8 -9 -14 -20 -14 -11 0 -20 -4 -20
-10 0 -5 7 -10 16 -10 10 0 14 -6 11 -14 -3 -8 1 -17 9 -20 10 -4 14 2 14 19
0 28 15 34 24 10 3 -8 12 -15 20 -15 10 0 13 -6 10 -15 -4 -8 -2 -15 4 -15 6
0 13 6 15 13 4 9 6 9 6 0 1 -7 8 -10 16 -7 8 4 12 11 8 18 -3 6 -2 7 3 3 9 -9
10 -13 13 -42 0 -8 17 -22 36 -31 30 -14 42 -32 33 -49 -2 -2 4 -10 13 -17 24
-20 79 -94 79 -108 0 -6 4 -9 9 -6 8 5 26 -48 22 -67 0 -4 8 -16 19 -27 17
-17 26 -52 21 -82 0 -5 4 -8 10 -8 6 0 8 -8 4 -19 -3 -12 0 -21 11 -25 11 -4
14 -13 10 -30 -3 -15 -1 -30 7 -38 7 -7 12 -30 12 -51 -1 -22 3 -41 9 -43 13
-5 14 -43 2 -62 -4 -7 -3 -12 2 -12 6 0 10 -10 10 -22 0 -45 14 -113 23 -116
5 -2 6 -8 3 -14 -4 -6 -9 -27 -11 -47 -3 -20 -10 -42 -15 -49 -8 -9 -7 -11 6
-6 15 6 16 -1 10 -62 -3 -38 -5 -80 -4 -94 1 -14 1 -32 0 -40 0 -8 -1 -27 -1
-42 0 -20 -5 -28 -17 -28 -13 -1 -11 -4 6 -14 22 -12 23 -14 7 -29 -9 -10 -13
-17 -9 -17 5 0 3 -5 -4 -12 -16 -16 -15 -45 1 -52 9 -3 8 -8 -4 -18 -18 -15
-49 -105 -49 -143 0 -14 -7 -28 -15 -31 -8 -4 -12 -10 -9 -15 3 -5 0 -9 -5 -9
-6 0 -10 -6 -9 -12 2 -7 -4 -13 -12 -12 -10 1 -16 -9 -17 -27 -3 -39 -36 -98
-73 -133 -17 -15 -35 -37 -41 -47 -28 -53 36 12 92 93 100 145 179 353 201
528 15 119 4 458 -18 530 -8 30 -20 73 -25 95 -23 93 -74 226 -121 315 -61
114 -73 131 -159 235 -68 81 -82 95 -179 176 -201 167 -466 253 -678 219z
m466 -158 c3 -9 -2 -13 -14 -10 -9 1 -19 9 -22 16 -3 9 2 13 14 10 9 -1 19 -9
22 -16z m-18 -52 c0 -5 -4 -10 -10 -10 -5 0 -10 5 -10 10 0 6 5 10 10 10 6 0
10 -4 10 -10z m410 -220 c0 -5 -2 -10 -4 -10 -3 0 -8 5 -11 10 -3 6 -1 10 4
10 6 0 11 -4 11 -10z m290 -700 c0 -5 -2 -10 -4 -10 -3 0 -8 5 -11 10 -3 6 -1
10 4 10 6 0 11 -4 11 -10z"/>
<path d="M4850 6800 c0 -5 11 -10 24 -10 14 0 28 5 31 10 4 6 -7 10 -24 10
-17 0 -31 -4 -31 -10z"/>
<path d="M3835 6766 c-52 -13 -122 -43 -130 -56 -3 -4 21 -15 53 -24 31 -10
63 -20 70 -23 7 -3 18 10 28 34 9 21 25 48 37 61 24 26 17 26 -58 8z"/>
<path d="M4781 6671 c-10 -6 -3 -12 25 -21 52 -18 140 -60 191 -93 24 -15 46
-27 50 -27 5 0 28 -16 53 -36 l45 -36 5 29 c3 15 7 27 10 26 40 -12 59 -28 56
-47 -3 -21 -31 -30 -31 -11 0 6 -6 19 -13 30 -11 18 -12 17 -6 -10 10 -45 24
-58 57 -51 20 4 27 2 24 -7 -2 -6 -10 -11 -17 -9 -11 3 -11 0 0 -13 10 -12 16
-13 26 -4 9 7 30 9 54 5 25 -4 40 -2 40 4 0 5 -6 10 -14 10 -8 0 -17 7 -20 16
-9 22 -8 24 10 24 9 0 31 -17 50 -37 19 -20 36 -34 39 -31 6 6 -101 118 -146
153 -66 52 -189 110 -274 130 -66 16 -192 20 -214 6z m476 -217 c-3 -3 -12 -4
-19 -1 -8 3 -5 6 6 6 11 1 17 -2 13 -5z m28 -34 c-3 -5 -10 -10 -16 -10 -5 0
-9 5 -9 10 0 6 7 10 16 10 8 0 12 -4 9 -10z"/>
<path d="M4670 6656 c-55 -12 -136 -50 -177 -83 l-23 -18 36 -45 c20 -25 41
-54 46 -64 12 -23 22 -86 14 -86 -4 0 -41 32 -83 72 -43 39 -96 79 -118 89
-58 25 -151 38 -216 29 -124 -17 -268 -120 -337 -241 -42 -74 -81 -203 -87
-285 -5 -73 -9 -84 -28 -65 -8 8 -12 51 -11 139 1 104 5 139 23 192 23 65 81
170 107 191 26 21 14 29 -41 29 -82 0 -151 -18 -245 -62 -67 -32 -100 -56
-158 -115 -68 -68 -180 -226 -219 -308 -19 -39 -40 -42 -35 -4 4 28 52 155 83
219 75 154 208 269 401 345 94 38 86 45 -56 45 -145 0 -237 -32 -386 -138 -72
-50 -198 -175 -239 -236 -141 -210 -216 -382 -269 -621 -24 -107 -27 -140 -27
-315 0 -217 13 -295 80 -475 46 -122 68 -166 136 -265 94 -138 249 -280 394
-360 l40 -23 -50 51 c-27 27 -63 69 -80 92 -21 29 -31 37 -33 26 -2 -9 -10
-16 -18 -16 -12 0 -14 9 -9 43 6 36 2 54 -23 103 -33 68 -65 136 -68 147 -1 4
-2 8 -3 10 -2 1 -5 28 -7 60 -3 32 -11 96 -18 143 -11 79 -8 104 15 104 9 0
27 -54 39 -116 25 -134 119 -329 223 -458 78 -98 201 -196 316 -251 42 -20 89
-43 104 -51 44 -22 49 -17 27 27 -14 26 -31 44 -51 51 -28 10 -32 23 -7 23 6
0 12 12 14 28 2 25 0 27 -24 21 -23 -5 -25 -4 -11 8 14 12 14 19 1 76 -22 89
-7 97 51 25 59 -75 164 -183 201 -208 96 -66 96 -66 96 -49 0 16 1 16 19 0 13
-12 20 -14 23 -5 3 9 9 9 25 -2 17 -10 24 -10 36 0 15 12 18 11 73 -16 23 -12
77 -6 68 8 -3 5 2 9 11 9 9 0 23 7 32 16 14 14 17 12 34 -23 l17 -38 1 33 c1
27 5 32 26 32 14 0 33 9 42 19 9 11 20 18 25 15 5 -3 4 -12 -3 -20 -7 -9 -8
-14 -1 -14 6 0 14 5 17 11 4 6 13 8 20 5 8 -3 21 7 31 22 26 40 57 72 72 72 7
0 0 -11 -15 -25 l-28 -24 26 -1 c18 0 32 9 43 25 9 14 23 25 31 25 8 0 19 8
24 18 9 13 12 14 19 4 5 -7 24 -15 43 -17 19 -1 41 -6 50 -9 12 -5 15 -1 15
16 -1 19 4 23 27 23 27 -1 35 9 17 20 -18 11 -10 23 19 30 30 6 64 35 42 35
-6 0 -11 -5 -11 -12 0 -6 -2 -9 -5 -6 -10 9 7 38 20 36 7 -2 27 17 46 41 19
25 39 46 45 48 15 5 26 -39 12 -48 -6 -4 13 -7 41 -7 28 0 51 4 51 9 0 5 7 9
15 9 8 0 26 18 40 40 14 22 33 40 43 40 10 0 29 14 44 30 19 22 22 30 11 30
-12 0 -11 5 5 23 51 56 82 95 82 105 0 5 6 12 14 15 8 3 13 21 13 46 0 22 8
52 17 65 9 14 16 32 16 39 0 8 7 20 15 27 20 17 19 31 -2 23 -16 -6 -16 -4 1
15 11 12 16 22 12 22 -3 0 3 18 14 40 22 43 24 50 12 50 -4 0 -21 -28 -37 -62
-30 -65 -107 -192 -130 -215 -18 -18 -35 -16 -70 7 -16 11 -33 20 -36 20 -6 0
-32 -55 -49 -100 -14 -39 -85 -152 -121 -193 -50 -58 -140 -103 -237 -118 -90
-15 -101 -10 -173 78 l-53 64 -13 -53 c-17 -75 -39 -124 -60 -133 -21 -8 -43
-11 -133 -19 -80 -7 -92 0 -146 84 -21 33 -41 60 -44 60 -3 0 -21 -30 -40 -67
-19 -37 -43 -71 -52 -77 -23 -14 -180 9 -229 35 -81 41 -153 126 -215 253
l-28 58 -19 -43 c-10 -24 -23 -54 -28 -66 -13 -35 -42 -28 -106 26 -140 116
-231 244 -322 451 -25 56 -46 161 -38 183 8 20 47 23 47 4 0 -8 14 -34 31 -60
35 -53 135 -120 251 -169 89 -38 282 -98 314 -98 26 0 33 -9 124 -149 36 -56
67 -101 70 -101 3 0 26 41 50 91 25 49 52 97 61 105 13 11 58 17 180 24 168 9
327 30 413 55 36 11 53 12 62 4 8 -6 46 -53 85 -105 39 -52 75 -97 80 -99 10
-7 89 155 119 247 13 37 28 72 34 77 6 6 48 25 92 44 91 38 202 108 253 158
19 19 61 67 93 107 58 73 58 74 58 140 0 69 -16 188 -28 206 -7 12 -6 8 -20
93 -6 34 -16 72 -22 83 -6 12 -18 43 -26 70 -41 138 -173 347 -304 480 -77 79
-215 192 -270 220 -30 16 -41 31 -35 48 2 6 3 12 2 11 -1 0 -27 -6 -57 -13z
m279 -494 c71 -74 271 -337 271 -357 0 -2 20 -38 45 -79 25 -42 45 -81 45 -87
0 -24 -53 -76 -102 -101 -87 -44 -158 -67 -258 -84 -170 -29 -462 -6 -452 35
1 6 28 55 59 109 80 137 264 512 296 605 11 30 39 19 96 -41z m-1444 -300 c66
-74 189 -204 272 -290 84 -87 153 -161 153 -165 0 -17 -95 -49 -208 -69 -277
-50 -619 -18 -662 62 -12 22 -11 25 42 179 44 130 128 307 188 399 l40 63 28
-22 c15 -13 81 -83 147 -157z m726 -305 c102 -137 290 -429 286 -441 -11 -28
-240 -65 -409 -66 -122 0 -138 4 -138 34 0 19 84 271 154 461 14 38 26 71 26
72 0 2 8 3 18 3 9 0 38 -28 63 -63z m-1258 -124 c2 -32 12 -98 21 -148 17 -90
17 -90 -5 -107 -24 -20 -38 -16 -38 10 0 9 -3 76 -7 148 -4 73 -4 139 -1 149
12 29 24 7 30 -52z m1831 -1098 c-6 -16 -24 -21 -24 -7 0 11 11 22 21 22 5 0
6 -7 3 -15z m-1154 -195 c0 -5 -5 -10 -11 -10 -5 0 -7 5 -4 10 3 6 8 10 11 10
2 0 4 -4 4 -10z m10 -30 c0 -5 -2 -10 -4 -10 -3 0 -8 5 -11 10 -3 6 -1 10 4
10 6 0 11 -4 11 -10z"/>
<path d="M6065 6604 c-27 -2 -64 -6 -82 -9 l-32 -6 58 -79 c115 -155 237 -401
271 -547 l12 -53 141 0 c78 0 657 -3 1286 -5 1168 -5 1172 -5 1156 -40 -46
-104 -98 -246 -99 -269 -1 -27 2 -31 39 -37 62 -11 806 -17 842 -7 37 10 47
25 92 148 18 47 39 100 47 118 8 18 28 70 45 115 16 45 39 102 49 127 11 25
36 88 56 140 139 362 145 382 126 394 -10 6 -3933 16 -4007 10z"/>
<path d="M5673 6407 c1 -15 5 -27 10 -27 10 0 9 22 -2 39 -7 10 -9 7 -8 -12z"/>
<path d="M5715 6381 c-11 -10 -4 -20 10 -15 9 4 15 0 15 -10 0 -9 6 -16 14
-16 25 0 27 17 3 24 -18 5 -19 8 -7 16 12 7 10 9 -8 7 -13 -1 -25 -3 -27 -6z"/>
<path d="M5278 6373 c-10 -2 -18 -9 -18 -15 0 -6 9 -8 20 -5 12 3 20 0 20 -8
0 -7 7 -15 15 -19 17 -6 21 19 5 29 -6 4 -8 11 -5 16 6 9 -7 10 -37 2z"/>
<path d="M5348 6373 c7 -3 16 -2 19 1 4 3 -2 6 -13 5 -11 0 -14 -3 -6 -6z"/>
<path d="M5420 6366 c0 -3 12 -18 26 -33 14 -15 30 -38 35 -50 5 -13 13 -23
20 -23 10 0 -21 58 -51 93 -13 16 -30 23 -30 13z"/>
<path d="M5757 6323 c-12 -12 -7 -22 8 -17 8 4 15 10 15 15 0 11 -14 12 -23 2z"/>
<path d="M5800 6308 c-23 -19 -23 -20 -3 -14 16 5 23 2 28 -14 3 -11 14 -20
23 -20 13 0 13 2 -3 14 -11 8 -16 20 -12 29 10 25 -6 27 -33 5z"/>
<path d="M5306 6295 c4 -8 8 -15 10 -15 2 0 4 7 4 15 0 8 -4 15 -10 15 -5 0
-7 -7 -4 -15z"/>
<path d="M5780 5723 c0 -4 5 -15 10 -23 8 -13 10 -13 10 2 0 9 -4 20 -10 23
-5 3 -10 3 -10 -2z"/>
<path d="M5817 5516 c-3 -8 -2 -18 4 -21 5 -4 7 -21 4 -38 -4 -20 -1 -39 8
-51 12 -16 13 -12 10 38 -3 64 -16 99 -26 72z"/>
<path d="M5836 5363 c-6 -20 -2 -70 7 -80 8 -7 13 52 7 77 -6 24 -7 24 -14 3z"/>
<path d="M5547 5283 c-3 -16 -1 -35 4 -43 6 -10 8 -2 9 28 0 48 -5 55 -13 15z"/>
<path d="M5834 5262 c-17 -11 -26 -49 -14 -57 7 -4 7 -12 0 -24 -5 -10 -7 -35
-3 -55 4 -27 2 -36 -8 -36 -11 0 -11 -2 1 -10 8 -5 18 -10 21 -10 7 0 21 83
25 153 2 47 -1 53 -22 39z"/>
<path d="M5535 5170 c3 -5 8 -10 11 -10 2 0 4 5 4 10 0 6 -5 10 -11 10 -5 0
-7 -4 -4 -10z"/>
<path d="M5507 5113 c-13 -12 -7 -33 8 -33 8 0 15 9 15 20 0 20 -11 26 -23 13z"/>
<path d="M5410 5080 c0 -5 5 -10 10 -10 6 0 10 5 10 10 0 6 -4 10 -10 10 -5 0
-10 -4 -10 -10z"/>
<path d="M5816 5044 c-11 -8 -14 -14 -7 -14 7 0 9 -4 6 -10 -3 -5 -2 -10 3
-10 8 0 25 40 19 46 -1 1 -11 -4 -21 -12z"/>
<path d="M2446 4989 c-6 -32 -30 -185 -41 -259 -25 -172 -32 -506 -15 -745 20
-267 83 -600 152 -800 6 -16 16 -50 24 -75 54 -184 214 -541 320 -716 24 -40
44 -77 44 -83 0 -6 4 -11 8 -11 5 0 14 -12 20 -26 35 -76 272 -400 396 -541
225 -255 516 -507 811 -703 184 -123 207 -136 370 -218 295 -149 605 -255 925
-318 251 -49 349 -54 1261 -54 793 0 848 1 866 18 17 15 100 213 218 522 20
52 43 110 51 128 15 32 13 62 -3 62 -4 1 -435 2 -958 4 -958 2 -1045 5 -1220
41 -385 78 -701 199 -1024 392 -20 12 -49 29 -65 38 -16 9 -76 51 -135 92
-519 369 -915 898 -1154 1543 -84 225 -131 453 -160 760 -2 20 -17 33 -75 64
-267 144 -478 447 -583 836 -11 41 -22 76 -24 78 -2 2 -6 -11 -9 -29z"/>
<path d="M5486 5001 c-4 -5 -2 -12 3 -15 5 -4 12 -2 15 3 4 5 2 12 -3 15 -5 4
-12 2 -15 -3z"/>
<path d="M5809 4974 c-1 -5 -1 -13 0 -18 1 -5 -5 -6 -14 -2 -11 4 -14 2 -8 -7
4 -6 6 -22 4 -34 -1 -13 0 -23 3 -23 8 0 28 81 22 88 -3 3 -7 1 -7 -4z"/>
<path d="M5398 4953 c7 -3 16 -2 19 1 4 3 -2 6 -13 5 -11 0 -14 -3 -6 -6z"/>
<path d="M5775 4870 c3 -5 8 -10 11 -10 2 0 4 5 4 10 0 6 -5 10 -11 10 -5 0
-7 -4 -4 -10z"/>
<path d="M5733 4755 c-3 -9 -3 -18 -1 -21 3 -3 8 4 11 16 6 23 -1 27 -10 5z"/>
<path d="M6522 4721 c-54 -9 -68 -24 -127 -136 -61 -116 -128 -233 -180 -315
-22 -36 -53 -90 -69 -120 -16 -30 -37 -67 -48 -82 -10 -14 -18 -28 -18 -31 0
-2 -22 -42 -50 -88 -51 -86 -59 -112 -38 -125 15 -10 479 -14 1376 -14 l722 0
0 -21 c0 -12 -11 -47 -25 -78 -37 -86 -212 -501 -270 -641 -12 -30 -31 -73
-41 -95 -9 -22 -25 -60 -34 -85 -10 -25 -33 -83 -52 -130 -19 -47 -42 -106
-51 -131 -10 -25 -29 -57 -43 -70 l-26 -24 -476 -1 c-787 -2 -1014 17 -1277
111 -315 111 -666 377 -839 635 -108 161 -203 364 -252 540 -10 36 -18 66 -19
68 -1 1 -44 -9 -96 -23 -173 -47 -421 -55 -546 -19 -28 8 -28 -5 -8 -116 37
-207 153 -501 283 -715 384 -632 1054 -1072 1743 -1145 55 -6 509 -10 1096
-10 l1002 0 25 22 c16 14 44 68 70 133 61 151 115 284 131 320 23 50 172 406
261 623 19 46 43 103 54 127 11 24 20 46 20 50 0 3 9 24 20 48 10 23 35 80 53
127 19 47 56 135 82 195 25 61 58 139 71 175 14 36 39 97 55 135 17 39 40 93
51 120 11 28 27 66 36 85 8 19 23 55 32 80 10 25 48 119 85 210 37 91 74 182
82 204 7 21 20 51 28 66 32 62 47 121 34 136 -10 12 -207 14 -1398 13 -762 -1
-1405 -5 -1429 -8z"/>
<path d="M5693 4675 c-7 -8 -13 -19 -13 -25 0 -9 -20 -14 -41 -12 -4 1 -15 -8
-25 -20 -16 -18 -16 -20 -3 -16 32 12 13 -27 -39 -81 -29 -30 -52 -58 -52 -63
0 -4 -15 -17 -32 -28 -18 -11 -29 -20 -25 -20 5 0 -13 -16 -39 -36 -66 -51
-89 -73 -81 -80 7 -7 107 68 187 142 52 48 159 192 176 238 7 20 3 20 -13 1z"/>
<path d="M5739 4513 c-13 -16 -12 -17 4 -4 16 13 21 21 13 21 -2 0 -10 -8 -17
-17z"/>
<path d="M5110 4435 c-7 -9 -11 -18 -8 -20 3 -3 11 1 18 10 7 9 11 18 8 20 -3
3 -11 -1 -18 -10z"/>
<path d="M3750 4055 c14 -8 30 -14 35 -14 6 0 -1 6 -15 14 -14 8 -29 14 -35
14 -5 0 1 -6 15 -14z"/>
</g>
</svg>
