<?xml version="1.0" standalone="no"?>
<!DOCTYPE svg PUBLIC "-//W3C//DTD SVG 20010904//EN"
 "http://www.w3.org/TR/2001/REC-SVG-20010904/DTD/svg10.dtd">
<svg version="1.0" xmlns="http://www.w3.org/2000/svg"
 width="64.000000pt" height="44.000000pt" viewBox="0 0 64.000000 44.000000"
 preserveAspectRatio="xMidYMid meet">

<g transform="translate(0.000000,44.000000) scale(0.100000,-0.100000)"
fill="#000000" stroke="none">
<path d="M175 431 c-103 -25 -168 -107 -168 -211 0 -86 43 -155 121 -194 46
-24 161 -34 173 -15 15 24 11 26 -65 31 -52 3 -84 11 -109 27 -111 68 -110
234 1 303 33 21 51 23 185 26 133 4 148 6 157 23 10 18 6 19 -127 18 -76 -1
-151 -4 -168 -8z"/>
<path d="M388 293 c6 -2 18 -2 25 0 6 3 1 5 -13 5 -14 0 -19 -2 -12 -5z"/>
<path d="M288 243 c23 -2 59 -2 80 0 20 2 1 4 -43 4 -44 0 -61 -2 -37 -4z"/>
</g>
</svg>
